<svg width="27" height="25" viewBox="0 0 27 25" fill="none" xmlns="http://www.w3.org/2000/svg">
<path d="M24.7133 3.06476C23.3293 1.54627 21.4303 0.709961 19.3656 0.709961C17.8223 0.709961 16.409 1.20354 15.1647 2.17686C14.5369 2.66816 13.968 3.26924 13.4664 3.97081C12.965 3.26945 12.3959 2.66816 11.7679 2.17686C10.5238 1.20354 9.11044 0.709961 7.56715 0.709961C5.50249 0.709961 3.60325 1.54627 2.21927 3.06476C0.8518 4.5655 0.0985107 6.61573 0.0985107 8.83805C0.0985107 11.1254 0.941142 13.2191 2.75022 15.4274C4.36858 17.4028 6.69453 19.408 9.38806 21.73C10.3078 22.523 11.3503 23.4218 12.4328 24.3793C12.7188 24.6326 13.0858 24.7721 13.4664 24.7721C13.8468 24.7721 14.214 24.6326 14.4995 24.3797C15.582 23.422 16.6252 22.5228 17.5453 21.7294C20.2384 19.4078 22.5644 17.4028 24.1828 15.4272C25.9918 13.2191 26.8343 11.1254 26.8343 8.83785C26.8343 6.61573 26.081 4.5655 24.7133 3.06476Z" fill="#FEB302"/>
</svg>
