<svg width="21" height="21" viewBox="0 0 21 21" fill="none" xmlns="http://www.w3.org/2000/svg">
<path d="M20.1357 19.1406L15.0736 14.1595C16.3992 12.7193 17.2137 10.8146 17.2137 8.71872C17.213 4.23518 13.52 0.601074 8.96405 0.601074C4.40812 0.601074 0.715088 4.23518 0.715088 8.71872C0.715088 13.2023 4.40812 16.8364 8.96405 16.8364C10.9325 16.8364 12.738 16.1555 14.1561 15.0236L19.2379 20.0243C19.4855 20.2683 19.8875 20.2683 20.1351 20.0243C20.3833 19.7805 20.3833 19.3846 20.1357 19.1406ZM8.96405 15.5874C5.10924 15.5874 1.98431 12.5122 1.98431 8.71872C1.98431 4.92523 5.10924 1.85002 8.96405 1.85002C12.8189 1.85002 15.9438 4.92523 15.9438 8.71872C15.9438 12.5122 12.8189 15.5874 8.96405 15.5874Z" fill="#AAAAAA"/>
</svg>
