<svg width="155" height="57" viewBox="0 0 155 57" fill="none" xmlns="http://www.w3.org/2000/svg">
<path d="M46.0813 28.0938C46.1354 27.8203 46.1715 27.6016 46.1896 27.4375C46.2076 27.2552 46.1444 27.0638 46 26.8632C46.0722 26.5716 46.1265 26.3438 46.1625 26.1797C46.2166 26.0156 46.2257 25.7877 46.1896 25.4961C46.3521 25.0221 46.5958 24.6211 46.9207 24.293C47.2637 23.9648 47.6338 23.6914 48.031 23.4727C48.4283 23.2357 48.8434 23.0443 49.2767 22.8984C49.7099 22.7344 50.1162 22.5976 50.4953 22.4883C50.4953 22.4154 50.4592 22.3789 50.387 22.3789C50.3148 22.3789 50.2967 22.3333 50.3328 22.2421C51.3077 22.0599 52.2826 21.7956 53.2575 21.4492C54.2504 21.1029 55.2613 20.793 56.2904 20.5196C57.3194 20.2461 58.3755 20.082 59.4587 20.0273C60.542 19.9544 61.6793 20.0912 62.8708 20.4375C62.9431 20.6562 63.0423 20.8659 63.1687 21.0664C63.2951 21.2669 63.4214 21.4674 63.5478 21.668C63.6922 21.8502 63.8187 22.0326 63.9269 22.2148C64.0353 22.3971 64.0985 22.5885 64.1165 22.789C64.3331 22.9896 64.5047 23.2084 64.631 23.4453C64.7754 23.6641 64.8025 23.9648 64.7122 24.3476C64.5137 24.4934 64.306 24.6393 64.0894 24.7852C63.8728 24.931 63.6472 25.0677 63.4125 25.1953C62.6 24.9948 61.7876 24.9218 60.9752 24.9766C60.1629 25.0313 59.4317 25.095 58.7818 25.168C58.5831 24.9492 58.3484 24.8489 58.0777 24.8672C57.8069 24.8672 57.518 24.9128 57.2111 25.0039C56.9222 25.0768 56.6334 25.1588 56.3446 25.25C56.0557 25.3229 55.7849 25.3412 55.5322 25.3047C55.3335 25.487 55.0718 25.6146 54.7469 25.6875C54.4219 25.7421 54.0789 25.7877 53.7178 25.8242C53.6998 25.9154 53.7178 25.9791 53.772 26.0156C53.8261 26.052 53.8351 26.1249 53.7991 26.2344C53.9254 26.3984 54.0969 26.5169 54.3135 26.5899C54.5303 26.6445 54.7469 26.6992 54.9635 26.7539C55.1982 26.8086 55.4057 26.8906 55.5863 27C55.7669 27.0912 55.8843 27.2461 55.9384 27.4648C56.2634 27.4831 56.5431 27.5742 56.7778 27.7383C57.0125 27.8841 57.2111 28.0663 57.3736 28.2852C57.5361 28.5039 57.6534 28.7409 57.7256 28.9961C57.7978 29.2331 57.8249 29.4518 57.8069 29.6524C57.8791 29.8346 57.9513 29.9075 58.0236 29.8711C58.1137 29.8346 58.2131 29.8802 58.3214 30.0078C58.3936 30.2813 58.5561 30.5729 58.8089 30.8828C59.0796 31.1745 59.2873 31.4934 59.4317 31.8399C59.4677 32.3868 59.4949 32.8789 59.5129 33.3164C59.549 33.7539 59.4768 34.1823 59.2962 34.6015C58.9893 35.4037 58.5471 36.1237 57.9693 36.7617C57.3916 37.3998 56.7327 37.9648 55.9925 38.457C55.2704 38.931 54.5031 39.3502 53.6907 39.7148C52.8783 40.0612 52.0749 40.3529 51.2807 40.5899C51.2084 40.5716 51.1182 40.5716 51.0098 40.5899C50.9195 40.6081 50.9015 40.5533 50.9557 40.4258C50.7932 40.5716 50.6036 40.6628 50.387 40.6992C50.1884 40.7357 49.9627 40.7448 49.7099 40.7266C49.4753 40.7266 49.2315 40.7174 48.9789 40.6992C48.7441 40.681 48.5094 40.6901 48.2747 40.7266C48.1303 40.5807 47.9949 40.4348 47.8685 40.289C47.7602 40.1432 47.67 39.97 47.5978 39.7696C47.5075 39.7513 47.4624 39.6967 47.4624 39.6055C47.4804 39.4961 47.4443 39.4414 47.354 39.4414C47.354 39.3685 47.3631 39.3138 47.3811 39.2773C47.3991 39.2409 47.4172 39.2044 47.4353 39.168C47.5075 39.1132 47.5346 39.0768 47.5165 39.0586C47.5165 39.0221 47.4894 38.9948 47.4353 38.9766C47.3991 38.9401 47.354 38.9037 47.2999 38.8672C47.2637 38.8307 47.2547 38.7852 47.2728 38.7304C47.3631 38.5664 47.3902 38.3749 47.354 38.1562C47.3359 37.9192 47.3179 37.6823 47.2999 37.4453C47.2818 37.2084 47.2999 36.9896 47.354 36.789C47.4082 36.5703 47.5616 36.3881 47.8144 36.2421C48.5546 36.3151 49.2496 36.2786 49.8995 36.1328C50.5676 35.987 51.1904 35.7864 51.768 35.5313C52.3638 35.276 52.9235 35.0026 53.447 34.711C53.9886 34.4011 54.5122 34.1185 55.0176 33.8632C55.0718 33.681 55.1531 33.526 55.2613 33.3984C55.3878 33.2709 55.5141 33.1524 55.6404 33.043C55.7669 32.9154 55.8843 32.7877 55.9925 32.6601C56.1009 32.5143 56.1821 32.3412 56.2362 32.1406C56.2543 32.0677 56.2543 32.013 56.2362 31.9766C56.2182 31.9401 56.1911 31.9128 56.155 31.8945C56.1188 31.8581 56.0828 31.8216 56.0466 31.7852C56.0106 31.7487 55.9925 31.694 55.9925 31.6211C55.9384 31.6029 55.8843 31.5846 55.83 31.5664C55.794 31.5482 55.7578 31.539 55.7218 31.539C55.2523 31.302 54.7559 31.1016 54.2323 30.9375C53.7088 30.7734 53.2664 30.5912 52.9054 30.3906C52.6888 30.5364 52.4722 30.5729 52.2555 30.5C52.0389 30.4271 51.7771 30.3542 51.4702 30.2813C50.712 30.2448 49.9898 30.1718 49.3037 30.0625C48.6358 29.9531 47.9859 29.7617 47.354 29.4883C47.3179 29.3789 47.2728 29.2877 47.2187 29.2148C47.1644 29.1237 47.0381 29.0963 46.8396 29.1328C46.7131 28.9505 46.5778 28.7864 46.4333 28.6406C46.3069 28.4766 46.1896 28.2943 46.0813 28.0938ZM63.1373 40.7539C62.8846 40.5899 62.6859 40.3802 62.5415 40.1249C62.379 39.8698 62.2527 39.5963 62.1624 39.3047C62.0541 39.013 61.9728 38.7123 61.9187 38.4024C61.8465 38.0742 61.7743 37.7643 61.7021 37.4727C61.7021 37.2174 61.7562 37.0352 61.8646 36.9258C61.9728 36.7982 62.0902 36.6797 62.2165 36.5703C62.6499 36.552 63.038 36.5156 63.381 36.461C63.724 36.4062 64.058 36.3516 64.383 36.2969C64.7079 36.2421 65.0329 36.1967 65.3579 36.1601C65.6828 36.1055 66.0348 36.0782 66.4139 36.0782C66.6848 35.513 66.9375 34.9753 67.1722 34.4648C67.4069 33.9362 67.6326 33.4348 67.8492 32.961C67.9575 32.5052 68.0929 32.0859 68.2554 31.7031C68.4359 31.302 68.6075 30.9284 68.7699 30.582C68.9324 30.2174 69.0768 29.8619 69.2032 29.5156C69.3296 29.1511 69.4108 28.7683 69.4469 28.3672C69.6635 27.7291 69.8531 27.1458 70.0156 26.6172C70.1962 26.0703 70.3315 25.4232 70.4218 24.6758C69.7358 24.7852 69.1852 24.8945 68.7699 25.0039C68.3547 25.095 68.0568 25.1862 67.8763 25.2773C67.5153 25.2591 67.2263 25.1862 67.0097 25.0586C66.8111 24.931 66.6486 24.776 66.5223 24.5938C66.3959 24.4115 66.2876 24.2018 66.1973 23.9648C66.107 23.7278 65.9988 23.4817 65.8723 23.2266C65.9445 23.0625 65.9626 22.8255 65.9266 22.5156C65.8904 22.1875 65.7821 21.9505 65.6016 21.8047C65.746 21.7683 65.8544 21.6498 65.9266 21.4492C65.9988 21.2304 66.0078 21.0664 65.9536 20.957C66.2605 20.8659 66.5854 20.8112 66.9285 20.793C67.2715 20.7566 67.6054 20.7291 67.9304 20.711C68.2735 20.6745 68.5984 20.6381 68.9053 20.6016C69.2122 20.5469 69.474 20.4467 69.6906 20.3007C70.6294 20.2643 71.6043 20.2278 72.6152 20.1914C73.6443 20.1549 74.5921 20.1094 75.4586 20.0547C75.7836 20.1641 76.1537 20.2187 76.5689 20.2187C77.0022 20.2187 77.4265 20.2461 77.8418 20.3007C78.275 20.3555 78.6541 20.474 78.979 20.6562C79.3221 20.8385 79.5568 21.1575 79.6831 21.6132C79.954 21.6498 80.1525 21.7227 80.2789 21.832C80.4233 21.9414 80.5136 22.0782 80.5497 22.2421C80.5858 22.3881 80.5949 22.5612 80.5768 22.7617C80.5768 22.944 80.5768 23.1263 80.5768 23.3086C80.288 23.5273 79.9178 23.7097 79.4665 23.8555C79.0332 23.9831 78.5548 24.0925 78.0313 24.1835C77.5077 24.2566 76.9571 24.3112 76.3794 24.3476C75.8197 24.3659 75.2691 24.3841 74.7275 24.4024C74.6373 25.0039 74.4748 25.7148 74.2401 26.5352C74.0235 27.3372 73.7977 28.1302 73.563 28.9141C73.3283 29.6797 73.1208 30.3724 72.9402 30.9921C72.7777 31.5938 72.7055 31.9857 72.7236 32.168C72.543 32.5872 72.3896 32.9427 72.2633 33.2344C72.1549 33.526 72.0465 33.7995 71.9383 34.0547C71.848 34.3099 71.7487 34.5651 71.6404 34.8203C71.5502 35.0573 71.4328 35.3307 71.2884 35.6406H73.1298C73.1659 35.8412 73.2471 35.9778 73.3735 36.0508C73.4999 36.1237 73.6352 36.1875 73.7797 36.2421C73.9242 36.2969 74.0505 36.3698 74.1588 36.461C74.2852 36.5339 74.3483 36.6615 74.3483 36.8438C74.6914 36.9348 74.908 37.0716 74.9983 37.2539C75.0886 37.4362 75.1066 37.6367 75.0525 37.8555C75.0164 38.056 74.9261 38.2656 74.7817 38.4844C74.6553 38.7031 74.5289 38.8945 74.4026 39.0586C74.2401 39.0221 74.0866 39.0677 73.9422 39.1953C73.7977 39.3047 73.6624 39.4323 73.536 39.5782C73.0124 39.5052 72.4979 39.4961 71.9924 39.5508C71.4869 39.6055 71.0175 39.6511 70.5843 39.6875C70.494 39.7057 70.458 39.7604 70.4759 39.8515C70.494 39.9245 70.4759 39.9791 70.4218 40.0156C69.8621 39.8333 69.2844 39.7604 68.6887 39.7969C68.111 39.8333 67.5153 39.9245 66.9014 40.0703C66.3057 40.1979 65.6919 40.3346 65.0599 40.4804C64.4282 40.6445 63.7873 40.7357 63.1373 40.7539ZM82.8471 37.8555C82.6666 38.0013 82.5583 38.1927 82.5222 38.4297C82.4861 38.6484 82.4409 38.8672 82.3868 39.0859C82.3326 39.3047 82.2334 39.4961 82.089 39.6601C81.9625 39.806 81.7278 39.8698 81.3848 39.8515C81.3126 39.9427 81.2946 39.9974 81.3307 40.0156C81.3848 40.0339 81.43 40.1159 81.466 40.2617C81.2134 40.2253 81.0328 40.2434 80.9245 40.3164C80.8162 40.3893 80.6807 40.444 80.5182 40.4804C80.1031 40.3529 79.751 40.1249 79.4622 39.7969C79.1914 39.4505 78.9476 39.0768 78.731 38.6758C78.5324 38.2747 78.3519 37.8646 78.1894 37.4453C78.045 37.026 77.8915 36.6615 77.729 36.3515C77.729 36.2786 77.7651 36.2513 77.8373 36.2696C77.8915 36.2696 77.9457 36.2696 77.9998 36.2696C77.9096 36.0872 77.8464 35.8867 77.8102 35.668C77.7561 35.431 77.6658 35.2396 77.5395 35.0938C78.063 33.9635 78.6227 32.7877 79.2185 31.5664C79.8142 30.3268 80.41 29.0782 81.0057 27.8203C81.6195 26.5443 82.2243 25.2683 82.82 23.9921C83.4339 22.6979 84.0206 21.431 84.5802 20.1914C85.0858 20.3737 85.5732 20.5925 86.0426 20.8476C86.5301 21.0846 86.9723 21.3672 87.3695 21.6953C87.7667 22.0234 88.1007 22.4062 88.3714 22.8438C88.6603 23.263 88.8498 23.7461 88.9401 24.293C88.9041 24.4024 88.8589 24.4388 88.8047 24.4024C88.7506 24.3659 88.7054 24.3841 88.6694 24.457C88.7597 24.5664 88.8047 24.6484 88.8047 24.7031C88.8228 24.7396 88.8228 24.7852 88.8047 24.8399C88.7867 24.8763 88.7776 24.931 88.7776 25.0039C88.7776 25.0768 88.8228 25.1771 88.9131 25.3047C88.8228 25.2864 88.7597 25.3047 88.7235 25.3594C88.6873 25.3958 88.6242 25.3958 88.5339 25.3594C88.6242 25.6146 88.6513 25.8152 88.6151 25.961C88.5791 26.1068 88.525 26.2434 88.4527 26.3711C88.3805 26.4804 88.3173 26.6081 88.2632 26.7539C88.227 26.8815 88.2451 27.0638 88.3173 27.3007C88.2451 27.3007 88.191 27.319 88.1548 27.3555C88.1367 27.3737 88.1188 27.4011 88.1007 27.4375C88.0826 27.474 88.0555 27.5104 88.0194 27.5469C88.0014 27.5652 87.9563 27.5652 87.8841 27.5469C87.9382 28.0209 87.9563 28.5039 87.9382 28.9961C87.9201 29.47 87.902 29.9623 87.8841 30.4727C87.866 30.9648 87.866 31.4753 87.8841 32.0039C87.902 32.5326 87.9742 33.0795 88.1007 33.6445C88.8769 33.1888 89.4998 32.5963 89.9691 31.8672C90.4566 31.1381 90.8357 30.3268 91.1065 29.4335C91.3954 28.5403 91.6121 27.5833 91.7565 26.5625C91.919 25.5416 92.0814 24.5026 92.2439 23.4453C92.4425 23.2448 92.5959 22.9987 92.7043 22.707C92.8306 22.4154 92.9299 22.1146 93.0021 21.8047C93.0924 21.4948 93.1736 21.1848 93.2458 20.8749C93.3361 20.5469 93.4534 20.2552 93.5979 20C93.9228 20.0364 94.1936 20.1368 94.4103 20.3007C94.6449 20.4467 94.8617 20.6198 95.0602 20.8203C95.2588 21.0026 95.4664 21.1758 95.683 21.3399C95.8997 21.5039 96.1705 21.6132 96.4954 21.668C96.7482 22.0326 96.9829 22.3881 97.1995 22.7344C97.4161 23.0625 97.5606 23.4362 97.6328 23.8555C97.5245 24.0377 97.4432 24.2383 97.3891 24.457C97.3349 24.6758 97.2717 24.8945 97.1995 25.1132C97.1454 25.332 97.0641 25.5326 96.9558 25.7148C96.8475 25.8971 96.6941 26.052 96.4954 26.1797C96.4413 26.7266 96.3601 27.237 96.2517 27.711C96.1434 28.1848 96.0441 28.6498 95.9539 29.1055C95.8636 29.5612 95.7823 30.0352 95.7101 30.5273C95.6379 31.0196 95.6108 31.5573 95.6289 32.1406C95.4664 32.6692 95.2858 33.2161 95.0873 33.7813C94.8887 34.3282 94.7443 34.8385 94.654 35.3125C94.3109 35.5859 94.0402 35.9232 93.8417 36.3242C93.643 36.7253 93.4354 37.1263 93.2187 37.5273C93.1285 37.6002 93.0743 37.6185 93.0563 37.582C93.0383 37.5273 92.957 37.4909 92.8125 37.4727C92.8306 37.6367 92.7945 37.7461 92.7043 37.8007C92.6321 37.8372 92.6411 37.9648 92.7313 38.1835C92.4244 38.3295 92.1536 38.5209 91.919 38.7578C91.6843 38.9947 91.4225 39.2135 91.1337 39.4141C90.8628 39.6146 90.5378 39.7513 90.1587 39.8242C89.7976 39.8789 89.3192 39.7969 88.7235 39.5782C87.8389 38.9218 87.0445 38.1654 86.3405 37.3086C85.6364 36.4518 85.0767 35.4401 84.6615 34.2734C84.4809 34.3282 84.3456 34.4467 84.2553 34.6289C84.165 34.8112 84.0839 35.0026 84.0116 35.2031C83.9393 35.4037 83.8671 35.5859 83.7949 35.75C83.7227 35.9141 83.6144 35.9961 83.47 35.9961C83.4339 36.1601 83.3617 36.3152 83.2534 36.461C83.1631 36.5885 83.0728 36.7253 82.9825 36.8711C82.8922 36.9987 82.82 37.1445 82.7659 37.3086C82.7299 37.4727 82.7569 37.6549 82.8471 37.8555ZM99.849 26.8906C99.8129 26.6537 99.7677 26.5078 99.7136 26.4531C99.8399 26.1249 99.9302 25.806 99.9848 25.4961C100.057 25.168 100.111 24.8581 100.147 24.5664C100.183 24.3112 100.219 24.0742 100.255 23.8555C100.31 23.6368 100.373 23.4271 100.445 23.2266C100.751 23.1537 100.978 23.026 101.122 22.8438C101.285 22.6432 101.41 22.47 101.501 22.3242C101.826 22.306 102.033 22.3516 102.123 22.461C102.232 22.5703 102.35 22.7526 102.476 23.0078C102.566 23.2084 102.692 23.4271 102.855 23.6641C103.017 23.8828 103.261 24.056 103.586 24.1835C103.641 24.3841 103.704 24.5755 103.776 24.7578C103.848 24.9401 103.929 25.1315 104.019 25.332C104.182 25.7148 104.335 26.1159 104.479 26.5352C104.625 26.9362 104.706 27.319 104.723 27.6835C104.507 28.1029 104.335 28.5859 104.209 29.1328C104.101 29.6797 104.028 30.2357 103.992 30.8007C103.975 31.3476 103.992 31.8763 104.047 32.3868C104.101 32.8971 104.191 33.3255 104.317 33.6718L104.479 34.1094L105.075 34.0547C105.725 33.8906 106.312 33.7084 106.835 33.5078C107.359 33.289 107.847 33.0339 108.298 32.7421C108.75 32.4505 109.182 32.1224 109.598 31.7578C110.013 31.3749 110.447 30.9284 110.898 30.418C111.331 29.9075 111.719 29.3333 112.062 28.6953C112.406 28.039 112.685 27.3646 112.901 26.6718C113.137 25.9791 113.317 25.2864 113.443 24.5938C113.569 23.9011 113.651 23.2539 113.687 22.6524C114.029 22.4883 114.219 22.224 114.256 21.8594L114.175 21.5039C114.12 21.4128 114.093 21.3307 114.093 21.2578C114.112 21.1667 114.138 21.0846 114.175 21.0117C114.319 20.5925 114.626 20.2826 115.095 20.082C115.42 20.3007 115.718 20.5377 115.988 20.793C116.278 21.0482 116.54 21.3033 116.774 21.5586C116.81 22.0508 116.882 22.4791 116.991 22.8438C117.099 23.1901 117.216 23.5273 117.343 23.8555C117.469 24.1654 117.578 24.4661 117.668 24.7578C117.776 25.0495 117.848 25.4049 117.884 25.8242C117.704 26.3711 117.569 26.8906 117.478 27.3828C117.406 27.8568 117.334 28.3581 117.262 28.8868L117.207 29.1875C116.882 29.7526 116.557 30.3359 116.232 30.9375C115.925 31.5209 115.673 32.0313 115.474 32.4687C115.366 32.5782 115.266 32.7057 115.176 32.8515C115.104 32.9974 115.032 33.1432 114.96 33.289C114.923 33.3438 114.869 33.4348 114.797 33.5625C114.743 33.6901 114.688 33.7813 114.635 33.8359L113.985 33.5899L113.822 34.4375L113.389 34.5469L113.064 34.9297C112.648 35.6588 112.207 36.2696 111.737 36.7617C111.285 37.2539 110.772 37.6914 110.194 38.0742C109.634 38.457 108.993 38.8216 108.27 39.168C107.567 39.4961 106.754 39.8515 105.834 40.2344C105.473 40.1797 105.157 40.1524 104.886 40.1524C104.633 40.1341 104.381 40.1159 104.128 40.0976C103.875 40.0976 103.631 40.0885 103.397 40.0703C103.162 40.052 102.891 40.0247 102.584 39.9883C102.512 39.8242 102.413 39.7057 102.286 39.6328C102.16 39.5599 102.042 39.5234 101.934 39.5234C101.573 39.3412 101.303 39.0859 101.122 38.7578C100.941 38.4297 100.751 38.0652 100.553 37.6641C100.463 37.4453 100.363 37.2266 100.255 37.0078C100.164 36.789 100.048 36.5795 99.9032 36.3789L100.445 36.2148L99.7407 35.3945C99.6865 35.3399 99.6233 35.2852 99.5511 35.2304C99.497 35.1758 99.4429 35.1119 99.3886 35.039V34.5196C99.3164 33.0247 99.2804 31.6484 99.2804 30.3906C99.2984 29.1146 99.4699 27.9934 99.7948 27.0273L99.849 26.8906ZM118.747 25.0039C118.728 24.8581 118.692 24.7304 118.638 24.6211C118.602 24.4934 118.557 24.3568 118.503 24.211C118.413 23.9921 118.331 23.7552 118.259 23.5C118.187 23.2448 118.151 22.944 118.151 22.5976C118.187 22.4154 118.232 22.2877 118.287 22.2148C118.34 22.1237 118.394 22.0508 118.448 21.9961L118.557 21.5039H118.963C119.107 21.5221 119.252 21.5313 119.397 21.5313C119.559 21.5313 119.712 21.5313 119.857 21.5313C120.543 21.5313 121.247 21.5039 121.969 21.4492C122.691 21.3945 123.431 21.3307 124.19 21.2578C125.02 21.1484 125.913 21.0664 126.871 21.0117C126.96 20.8112 127.015 20.6835 127.033 20.6289C127.069 20.5742 127.105 20.5104 127.141 20.4375L127.44 20.2734C127.854 20.2552 128.143 20.3099 128.306 20.4375C128.468 20.5469 128.594 20.6562 128.685 20.7656C129.154 20.7291 129.632 20.6835 130.121 20.6289C130.607 20.556 131.113 20.4831 131.637 20.4101C132.359 20.319 133.09 20.2278 133.83 20.1368C134.571 20.0456 135.293 20 135.996 20C136.303 20 136.593 20.0091 136.863 20.0273C137.134 20.0456 137.396 20.0729 137.649 20.1094L137.974 20.3555C138.046 20.4831 138.136 20.6016 138.244 20.711C138.352 20.8203 138.478 20.9297 138.624 21.039C138.894 21.2578 139.156 21.5313 139.409 21.8594C139.68 22.1875 139.778 22.6705 139.706 23.3086L139.571 23.582C139.499 23.6549 139.409 23.7278 139.3 23.8007L139.03 24.1562H138.731C138.551 24.1562 138.415 24.1745 138.325 24.211C138.235 24.2291 138.127 24.2656 138 24.3203C137.928 24.3568 137.847 24.3932 137.756 24.4297C137.666 24.4479 137.567 24.4753 137.459 24.5117C137.26 24.4934 137.106 24.4844 136.999 24.4844C136.89 24.4844 136.763 24.4844 136.619 24.4844C136.078 24.4844 135.491 24.5209 134.859 24.5938C134.227 24.6667 133.613 24.7487 133.018 24.8399C132.584 24.8945 132.169 24.9492 131.772 25.0039C131.375 25.0403 131.013 25.0768 130.688 25.1132C130.509 25.5872 130.346 26.0066 130.201 26.3711C130.057 26.7357 129.903 27.1002 129.741 27.4648C129.578 27.8295 129.425 28.2031 129.281 28.5859C129.137 28.9505 129 29.3606 128.875 29.8164C128.657 30.1445 128.477 30.4635 128.332 30.7734C128.188 31.0652 128.071 31.4024 127.981 31.7852C127.71 32.095 127.512 32.4323 127.385 32.7969C127.277 33.1615 127.178 33.4714 127.087 33.7266L126.979 34.1368C126.853 34.2643 126.771 34.3646 126.735 34.4375C126.717 34.5104 126.672 34.5925 126.6 34.6835C126.546 34.9205 126.473 35.1484 126.383 35.3672C126.347 35.4584 126.31 35.5586 126.275 35.668C126.238 35.7591 126.229 35.832 126.247 35.8867C126.212 36.0872 126.157 36.2421 126.085 36.3515C126.085 36.461 126.076 36.5703 126.058 36.6797C126.04 36.789 126.022 36.8984 126.004 37.0078C125.968 37.1354 125.941 37.2539 125.922 37.3632C125.904 37.4544 125.913 37.5456 125.95 37.6367C126.004 37.7097 126.058 37.7826 126.112 37.8555C126.166 37.9284 126.212 38.0196 126.247 38.1289C126.284 38.1654 126.329 38.1927 126.383 38.211C126.437 38.2291 126.482 38.2566 126.519 38.293C126.663 38.4205 126.798 38.4934 126.925 38.5117L127.196 38.8399C127.304 39.4961 127.204 40.0066 126.897 40.3711C126.572 40.7903 126.031 41 125.272 41L124.894 40.9727C124.768 40.845 124.695 40.763 124.677 40.7266C124.515 40.6537 124.379 40.5899 124.271 40.5352C124.162 40.4987 124.063 40.4167 123.973 40.289C123.937 40.2526 123.891 40.2344 123.838 40.2344C123.784 40.2161 123.738 40.1888 123.702 40.1524C123.522 40.0976 123.377 40.0339 123.269 39.961L122.971 39.7969C122.989 39.6146 122.998 39.487 122.998 39.4141C122.853 39.2135 122.737 38.9947 122.646 38.7578C122.574 38.5209 122.51 38.2747 122.456 38.0196C122.403 37.819 122.348 37.6367 122.294 37.4727C122.257 37.3086 122.194 37.1628 122.104 37.0352C122.068 35.7591 122.185 34.6927 122.456 33.8359C122.728 32.961 123.025 32.1132 123.35 31.293C123.531 30.8555 123.702 30.4088 123.865 29.9531C124.027 29.4974 124.172 29.0326 124.298 28.5586L124.596 28.2578C124.722 28.1484 124.803 28.0846 124.84 28.0664C124.84 27.8295 124.885 27.6016 124.975 27.3828C125.065 27.1458 125.165 26.9088 125.272 26.6718C125.345 26.526 125.409 26.3802 125.462 26.2344C125.534 26.0885 125.579 25.961 125.597 25.8516C125.472 25.8516 125.354 25.8606 125.246 25.8789C125.156 25.8789 125.056 25.8881 124.948 25.9062C124.713 25.961 124.487 25.9883 124.271 25.9883C124.109 25.9883 123.991 25.9791 123.919 25.961C123.775 26.0339 123.638 26.0795 123.513 26.0976C123.387 26.0976 123.26 26.0976 123.134 26.0976H122.809H122.484C122.267 26.0976 122.095 26.1249 121.969 26.1797C121.716 26.1797 121.554 26.1797 121.482 26.1797C121.409 26.1797 121.328 26.1797 121.238 26.1797H120.913H120.588C120.444 26.1797 120.281 26.1705 120.1 26.1524C119.92 26.1159 119.731 26.043 119.532 25.9335L119.342 25.7148C119.234 25.5143 119.135 25.4049 119.044 25.3868L118.747 25.3047V25.0039ZM136.318 28.0938C136.371 27.8203 136.407 27.6016 136.425 27.4375C136.443 27.2552 136.38 27.0638 136.235 26.8632C136.308 26.5716 136.362 26.3438 136.399 26.1797C136.453 26.0156 136.462 25.7877 136.425 25.4961C136.588 25.0221 136.831 24.6211 137.156 24.293C137.5 23.9648 137.869 23.6914 138.266 23.4727C138.664 23.2357 139.079 23.0443 139.512 22.8984C139.946 22.7344 140.352 22.5976 140.731 22.4883C140.731 22.4154 140.694 22.3789 140.622 22.3789C140.55 22.3789 140.533 22.3333 140.569 22.2421C141.543 22.0599 142.518 21.7956 143.493 21.4492C144.486 21.1029 145.497 20.793 146.527 20.5196C147.555 20.2461 148.611 20.082 149.694 20.0273C150.778 19.9544 151.915 20.0912 153.106 20.4375C153.178 20.6562 153.278 20.8659 153.405 21.0664C153.531 21.2669 153.658 21.4674 153.784 21.668C153.928 21.8502 154.055 22.0326 154.162 22.2148C154.271 22.3971 154.334 22.5885 154.352 22.789C154.569 22.9896 154.74 23.2084 154.867 23.4453C155.011 23.6641 155.039 23.9648 154.948 24.3476C154.749 24.4934 154.542 24.6393 154.325 24.7852C154.109 24.931 153.883 25.0677 153.649 25.1953C152.836 24.9948 152.024 24.9218 151.211 24.9766C150.399 25.0313 149.668 25.095 149.018 25.168C148.819 24.9492 148.584 24.8489 148.313 24.8672C148.043 24.8672 147.753 24.9128 147.447 25.0039C147.158 25.0768 146.869 25.1588 146.58 25.25C146.291 25.3229 146.021 25.3412 145.768 25.3047C145.569 25.487 145.308 25.6146 144.983 25.6875C144.658 25.7421 144.315 25.7877 143.953 25.8242C143.936 25.9154 143.953 25.9791 144.008 26.0156C144.062 26.052 144.071 26.1249 144.035 26.2344C144.161 26.3984 144.333 26.5169 144.549 26.5899C144.766 26.6445 144.983 26.6992 145.199 26.7539C145.434 26.8086 145.641 26.8906 145.822 27C146.003 27.0912 146.12 27.2461 146.174 27.4648C146.499 27.4831 146.778 27.5742 147.014 27.7383C147.249 27.8841 147.447 28.0663 147.609 28.2852C147.772 28.5039 147.889 28.7409 147.962 28.9961C148.034 29.2331 148.061 29.4518 148.043 29.6524C148.115 29.8346 148.187 29.9075 148.259 29.8711C148.349 29.8346 148.449 29.8802 148.558 30.0078C148.63 30.2813 148.792 30.5729 149.044 30.8828C149.315 31.1745 149.523 31.4934 149.668 31.8399C149.703 32.3868 149.731 32.8789 149.749 33.3164C149.784 33.7539 149.712 34.1823 149.533 34.6015C149.225 35.4037 148.783 36.1237 148.205 36.7617C147.627 37.3998 146.968 37.9648 146.228 38.457C145.506 38.931 144.739 39.3502 143.927 39.7148C143.114 40.0612 142.311 40.3529 141.516 40.5899C141.444 40.5716 141.354 40.5716 141.246 40.5899C141.155 40.6081 141.137 40.5533 141.191 40.4258C141.029 40.5716 140.84 40.6628 140.622 40.6992C140.424 40.7357 140.199 40.7448 139.946 40.7266C139.711 40.7266 139.468 40.7174 139.215 40.6992C138.98 40.681 138.746 40.6901 138.51 40.7266C138.366 40.5807 138.231 40.4348 138.104 40.289C137.996 40.1432 137.906 39.97 137.834 39.7696C137.743 39.7513 137.699 39.6967 137.699 39.6055C137.716 39.4961 137.68 39.4414 137.59 39.4414C137.59 39.3685 137.599 39.3138 137.616 39.2773C137.635 39.2409 137.653 39.2044 137.671 39.168C137.743 39.1132 137.771 39.0768 137.752 39.0586C137.752 39.0221 137.725 38.9948 137.671 38.9766C137.635 38.9401 137.59 38.9037 137.535 38.8672C137.5 38.8307 137.49 38.7852 137.509 38.7304C137.599 38.5664 137.626 38.3749 137.59 38.1562C137.572 37.9192 137.553 37.6823 137.535 37.4453C137.518 37.2084 137.535 36.9896 137.59 36.789C137.644 36.5703 137.797 36.3881 138.05 36.2421C138.79 36.3151 139.485 36.2786 140.135 36.1328C140.803 35.987 141.427 35.7864 142.003 35.5313C142.6 35.276 143.159 35.0026 143.683 34.711C144.224 34.4011 144.747 34.1185 145.253 33.8632C145.308 33.681 145.389 33.526 145.497 33.3984C145.624 33.2709 145.75 33.1524 145.877 33.043C146.003 32.9154 146.12 32.7877 146.228 32.6601C146.337 32.5143 146.418 32.3412 146.472 32.1406C146.49 32.0677 146.49 32.013 146.472 31.9766C146.454 31.9401 146.427 31.9128 146.391 31.8945C146.355 31.8581 146.318 31.8216 146.283 31.7852C146.246 31.7487 146.228 31.694 146.228 31.6211C146.174 31.6029 146.12 31.5846 146.066 31.5664C146.03 31.5482 145.993 31.539 145.958 31.539C145.488 31.302 144.991 31.1016 144.468 30.9375C143.944 30.7734 143.502 30.5912 143.141 30.3906C142.925 30.5364 142.708 30.5729 142.491 30.5C142.275 30.4271 142.013 30.3542 141.706 30.2813C140.947 30.2448 140.225 30.1718 139.54 30.0625C138.872 29.9531 138.222 29.7617 137.59 29.4883C137.553 29.3789 137.509 29.2877 137.454 29.2148C137.4 29.1237 137.274 29.0963 137.075 29.1328C136.949 28.9505 136.813 28.7864 136.669 28.6406C136.543 28.4766 136.425 28.2943 136.318 28.0938Z" fill="#FEB302"/>
<path d="M2.46283 37.5889C1.95222 37.1916 1.52967 36.6949 1.19507 36.0989C0.87821 35.5029 0.622905 34.8707 0.429155 34.2025C0.253147 33.5343 0.129822 32.848 0.0593967 32.1437C0.00660496 31.4212 -0.0110066 30.7348 0.00660507 30.0847C0.165088 29.597 0.358731 29.1546 0.587639 28.7572C0.816548 28.3418 1.07185 27.9535 1.35355 27.5923C1.63525 27.213 1.92582 26.8608 2.22516 26.5357C2.54202 26.1926 2.85022 25.8494 3.14955 25.5063C3.25514 25.5063 3.35196 25.5334 3.44002 25.5875C3.51044 25.3889 3.61613 25.2173 3.75698 25.0729C3.89783 24.9284 4.04755 24.8019 4.20593 24.6936C4.36441 24.5672 4.5229 24.4498 4.68138 24.3414C4.83986 24.215 4.97184 24.0705 5.07753 23.9079C5.51772 23.7995 5.90511 23.6461 6.2396 23.4473C6.59173 23.2487 6.92633 23.032 7.24329 22.7972C7.56015 22.5624 7.88588 22.3457 8.22048 22.147C8.55497 21.9483 8.94236 21.7948 9.38255 21.6864C9.54103 21.5059 9.73467 21.3523 9.96358 21.2259C10.2101 21.0995 10.4478 20.9821 10.6767 20.8737C10.9231 20.7653 11.152 20.6479 11.3633 20.5215C11.5922 20.3951 11.7771 20.2236 11.918 20.0067C12.0236 20.1513 12.1733 20.2055 12.367 20.1693C12.5607 20.1151 12.7368 20.061 12.8953 20.0067C13.0008 19.9888 13.0889 20.0067 13.1593 20.061C13.2297 20.1151 13.2914 20.1784 13.3442 20.2506C13.4146 20.3048 13.4674 20.341 13.5027 20.3589C13.5555 20.377 13.6083 20.3229 13.6612 20.1964C13.802 20.2145 13.8372 20.2777 13.7668 20.386C13.714 20.4944 13.6787 20.5667 13.6612 20.6028C13.8372 20.5667 13.978 20.6028 14.0837 20.7111C14.2069 20.8015 14.3918 20.8647 14.6384 20.9008C14.7264 20.9911 14.7528 21.0633 14.7175 21.1175C14.6824 21.1718 14.656 21.262 14.6384 21.3885C15.2722 21.5871 15.6772 21.9031 15.8532 22.3367C16.0293 22.752 16.047 23.1945 15.9061 23.664C15.7653 24.1156 15.5011 24.54 15.1137 24.9374C14.7439 25.3166 14.3303 25.5695 13.8724 25.6959C13.3266 25.8404 12.816 25.9849 12.3406 26.1294C11.8828 26.2738 11.4337 26.4364 10.9936 26.617C10.571 26.7976 10.1661 27.0144 9.7787 27.2672C9.40894 27.502 9.08321 27.782 8.80151 28.1071C8.30854 28.2516 7.85949 28.4502 7.45457 28.7031C7.06718 28.9559 6.69742 29.2358 6.34529 29.5429C6.01069 29.8499 5.68496 30.175 5.3681 30.5181C5.05114 30.8433 4.73417 31.1683 4.4172 31.4934C4.4172 31.8004 4.36441 32.0353 4.25883 32.1978C4.15314 32.3604 4.03868 32.5228 3.91547 32.6854C3.95062 33.0286 4.02105 33.3266 4.12674 33.5794C4.24996 33.8142 4.37328 34.058 4.4965 34.3109C5.90511 34.7444 7.39291 35.0152 8.96 35.1236C10.5446 35.214 12.1117 35.2681 13.6612 35.2862C13.8197 35.5029 13.9957 35.7106 14.1894 35.9093C14.4007 36.0899 14.5856 36.2796 14.7439 36.4782C14.9201 36.6768 15.0521 36.9116 15.1402 37.1826C15.2458 37.4354 15.2722 37.7424 15.2194 38.1036C14.9201 38.4106 14.5943 38.7087 14.2422 38.9976C13.8901 39.2685 13.5378 39.5395 13.1857 39.8104C13.0272 39.8284 12.8336 39.8284 12.6047 39.8104C12.3934 39.7924 12.1645 39.7833 11.918 39.7833C11.6892 39.7833 11.4514 39.8014 11.2049 39.8374C10.976 39.8555 10.7559 39.9097 10.5446 40C9.43534 39.9639 8.29967 39.8284 7.1376 39.5936C5.97553 39.3409 4.90142 39.0428 3.91547 38.6997C3.72172 38.4649 3.51931 38.2482 3.30804 38.0495C3.09665 37.8327 2.81495 37.6793 2.46283 37.5889Z" fill="#FEB302"/>
<path d="M39.6298 17.1308C39.0476 17.479 37.8043 17.9849 36.8114 18.2851C34.4573 18.9839 32.7496 19.8039 30.935 21.1024C29.9895 21.7865 28.318 23.2162 28.0004 23.6085C27.99 23.6258 28.1974 23.8019 28.4581 24.0034L28.9396 24.3778L29.2056 24.1461C29.6324 23.7811 30.1201 23.1267 30.3544 22.6267C30.4702 22.3696 30.5744 22.1598 30.5877 22.1567C30.654 22.1417 30.5218 22.6334 30.344 23.0684C30.148 23.5522 29.6934 24.1991 29.3706 24.4586C29.178 24.6066 29.1865 24.6493 29.5134 24.9771C29.74 25.216 30.1825 25.8153 30.5329 26.3686C30.6744 26.597 30.7427 26.5219 30.9784 25.8876C31.1779 25.3509 31.5133 25.014 32.3291 24.5158C33.116 24.0466 33.3928 23.6933 34.4444 21.8535C35.7232 19.6195 36.0304 19.1029 35.8408 19.5481C35.5158 20.2921 34.4691 22.369 34.0106 23.1732C33.5051 24.055 33.1843 24.396 32.4253 24.8663C31.7956 25.255 31.5812 25.4677 31.3936 25.8528C31.3065 26.0438 31.158 26.3457 31.0614 26.5239L30.8972 26.8516L31.1889 27.1055C31.6816 27.537 32.6414 28.2347 32.8854 28.3505L33.1148 28.4622L33.423 27.9156C33.7926 27.2583 34.384 25.8953 34.885 24.5306C35.3174 23.3453 35.3407 23.2878 35.2065 23.8395C34.8905 25.125 34.0789 27.3421 33.6388 28.1346L33.3411 28.6638L34.0045 29.0492L34.676 29.4401L34.8082 29.2313C35.0058 28.9333 35.5281 27.8541 35.7785 27.2239C36.0756 26.4788 36.2886 25.5518 36.3284 24.8354C36.3849 23.6386 36.8092 22.1648 37.7551 19.8203C38.4116 18.1894 38.3838 18.3298 37.5968 20.6381C37.0061 22.3583 36.7126 23.6163 36.632 24.7962C36.5943 25.3111 36.5152 25.9321 36.4524 26.1771C36.2913 26.8392 35.8492 27.9747 35.4232 28.8385C35.0765 29.5426 35.0598 29.5985 35.1882 29.6886C35.3952 29.8276 36.6524 30.3832 36.7253 30.3666C36.7585 30.3592 37.1085 29.885 37.5 29.3046C37.978 28.6002 38.2563 28.1126 38.3542 27.8C38.5877 27.0842 38.7395 25.985 38.8521 24.2618C38.9693 22.4556 39.0855 21.2454 39.1336 21.2791C39.1563 21.2888 39.1545 21.386 39.1462 21.4847C39.1311 21.5849 39.1018 22.4255 39.0826 23.3531C39.0281 26.1875 38.8618 27.5655 38.4672 28.3774C38.3733 28.5699 38.0163 29.15 37.6732 29.6598L37.0408 30.6003L37.4923 30.8922L37.9438 31.1842L38.0598 30.9643L38.1826 30.7428L38.1226 31.0021L38.0627 31.2614L38.4936 31.6251C38.7264 31.8254 38.9458 31.9914 38.975 31.9997C39.1678 32.0303 39.7323 29.6459 39.8871 28.1738C40.0758 26.344 40.0326 24.8497 39.7224 22.2026C39.4944 20.2589 39.5063 19.6829 39.7877 18.5393C39.9617 17.8372 40.0025 16.9493 39.8676 17.0023C39.8344 17.0097 39.7354 17.0695 39.6298 17.1308ZM33.2015 21.1234C33.0959 21.4676 32.2636 22.7661 31.6692 23.5117C31.3975 23.8564 30.9593 24.4103 30.6944 24.7534C30.4213 25.0909 30.2006 25.3421 30.1937 25.3065C30.1714 25.1924 31.0722 23.8559 32.0178 22.6061C32.545 21.9054 33.0365 21.2353 33.1017 21.1087C33.2663 20.8182 33.2943 20.8193 33.2015 21.1234ZM38.572 21.1313C38.2476 22.7983 38.1396 23.4483 38.0179 24.4886C37.9551 25.0166 37.8948 25.3803 37.8728 25.3033C37.8253 25.061 37.9094 23.8283 38.0297 23.0638C38.1434 22.3009 38.702 19.9922 38.7567 20.0246C38.7742 20.0429 38.6912 20.5383 38.572 21.1313Z" fill="#BC5D1D"/>
<path d="M26.4139 23.2375C24.9583 24.2839 22.9455 27.7252 22.3563 30.1722C21.5718 33.4049 22.1237 37.5431 23.6109 39.6359C24.0096 40.1981 24.4191 40.4956 24.8247 40.5243C25.3069 40.5507 25.7365 40.7013 26.7108 41.1939C28.0517 41.8739 28.8169 42.054 30.1154 41.9869C31.2968 41.931 33.4058 41.3521 34.8329 40.6944C37.7261 39.3624 39.4776 36.8338 39.9402 33.3214L40 32.8436L39.7979 32.5668C39.2683 31.8394 37.509 30.5343 36.3948 30.0432C34.5638 29.2263 32.1253 27.7143 31.0776 26.7438C30.8805 26.5634 30.582 26.1885 30.4096 25.92C29.5179 24.5324 28.3385 23.4641 27.2915 23.1002C26.847 22.9454 26.8068 22.9545 26.4139 23.2375ZM30.9114 27.8898C31.7426 28.6168 32.8977 29.421 33.6987 29.8177C34.0411 29.988 34.7833 30.3006 35.3575 30.5086C36.5831 30.9597 37.5018 31.42 38.0974 31.8778C38.7663 32.3868 38.8066 32.52 38.1726 32.1157C37.5059 31.6887 36.677 31.3282 35.4696 30.9329C34.9981 30.7841 34.3306 30.5297 33.9911 30.3737C33.2135 30.0242 31.8956 29.1068 31.2578 28.4712C30.7697 27.989 30.1761 27.3284 30.2231 27.3179C30.2365 27.3148 30.5474 27.5746 30.9114 27.8898ZM23.8199 29.2739C23.6645 29.8707 23.5162 31.3199 23.5082 32.273C23.4808 34.6163 23.9119 37.0439 24.5914 38.3518C24.9949 39.1152 25.4352 39.3908 26.725 39.6701C27.1634 39.7589 27.7497 39.9567 28.0298 40.096C28.644 40.3999 29.0595 40.4788 30.0087 40.4902C30.9848 40.4956 33.2993 39.9978 34.1998 39.5857C34.9716 39.2323 35.9003 38.6791 36.4707 38.2287C37.4416 37.4637 38.5303 36.0878 39.1239 34.8682C39.3427 34.4146 39.2711 34.6553 39.0131 35.2302C38.7038 35.9365 37.9413 37.0817 37.3965 37.6611C35.793 39.3773 33.4834 40.5032 30.9983 40.7771C29.5784 40.939 28.6189 40.84 27.9191 40.458C27.7457 40.3621 27.1149 40.1518 26.5156 39.9944C25.5896 39.7456 25.3692 39.6602 25.0124 39.3808C24.3354 38.8663 23.969 38.0423 23.6129 36.2422C23.1718 34.0115 23.1992 31.526 23.6918 29.5125C23.7799 29.1781 23.8579 28.8984 23.8781 28.8938C23.8982 28.8894 23.869 29.0607 23.8199 29.2739ZM37.8918 35.3774C36.9425 36.9616 35.4038 38.2962 33.7066 39.0073C32.8513 39.3643 31.4459 39.6352 30.6593 39.5949L30.1272 39.5646L30.5387 39.517C31.3644 39.4364 33.2081 38.9695 33.7588 38.7035C35.3049 37.9739 36.9041 36.6256 37.897 35.2264C38.2195 34.7644 38.2174 34.8248 37.8918 35.3774Z" fill="#BC5D1D"/>
<path d="M28.3494 50.5206C28.3451 50.8635 28.3407 51.1959 28.3364 51.5179C28.3364 51.6559 28.3342 51.798 28.3298 51.9445C28.3298 52.0866 28.3277 52.2288 28.3234 52.3709C28.3234 52.5131 28.3234 52.6491 28.3234 52.7787C28.3234 52.9042 28.3234 53.017 28.3234 53.1174C28.3234 53.3265 28.3234 53.5794 28.3234 53.8764C28.3277 54.1691 28.3321 54.4701 28.3364 54.7796C28.3407 55.0891 28.3472 55.388 28.356 55.6765C28.3647 55.9609 28.3755 56.1993 28.3885 56.3916C28.432 56.4 28.4885 56.4083 28.558 56.4167C28.6276 56.4209 28.6992 56.4272 28.7732 56.4355C28.8514 56.4397 28.9274 56.4439 29.0013 56.4481C29.0751 56.4481 29.1382 56.4481 29.1904 56.4481C29.4294 56.4481 29.6706 56.4334 29.9139 56.4042C30.1617 56.3748 30.3985 56.3206 30.6245 56.241C30.8548 56.1574 31.07 56.0445 31.2699 55.9023C31.4698 55.7601 31.6436 55.5783 31.7913 55.3567C31.9435 55.1308 32.0608 54.8611 32.1434 54.5475C32.2304 54.2297 32.2738 53.8554 32.2738 53.4247C32.2738 52.4755 32.0369 51.7437 31.5633 51.2294C31.0939 50.715 30.392 50.4579 29.4576 50.4579C29.3664 50.4579 29.2686 50.4599 29.1643 50.4642C29.0644 50.4683 28.9643 50.4746 28.8644 50.4829C28.7644 50.4871 28.6688 50.4934 28.5776 50.5017C28.4906 50.5101 28.4146 50.5164 28.3494 50.5206ZM27 50.0627C27.1044 50.0669 27.202 50.0689 27.2934 50.0689C27.3716 50.0731 27.4476 50.0753 27.5216 50.0753C27.5954 50.0753 27.6497 50.0753 27.6844 50.0753C27.7453 50.0753 27.854 50.0731 28.0104 50.0689C28.1669 50.0648 28.3429 50.0606 28.5384 50.0564C28.7384 50.0481 28.947 50.0418 29.1643 50.0376C29.3859 50.0292 29.5902 50.0251 29.7771 50.0251C30.2855 50.0251 30.7701 50.0815 31.2307 50.1944C31.6914 50.3073 32.0956 50.4934 32.4433 50.7527C32.7953 51.0078 33.0735 51.3443 33.2777 51.7625C33.482 52.1765 33.5841 52.6888 33.5841 53.2993C33.5841 53.9558 33.4668 54.5119 33.2321 54.9678C32.9974 55.4236 32.6802 55.7957 32.2803 56.0843C31.8805 56.3686 31.4155 56.5756 30.8853 56.7052C30.3594 56.8307 29.8031 56.8934 29.2164 56.8934C29.0774 56.8934 28.9035 56.8892 28.6949 56.8809C28.4863 56.8725 28.2733 56.8642 28.056 56.8558C27.8388 56.8473 27.6324 56.839 27.4368 56.8306C27.2455 56.8223 27.0999 56.8181 27 56.8181V56.7931C27.0304 56.7052 27.0565 56.5924 27.0782 56.4544C27.1044 56.3163 27.1238 56.1469 27.1368 55.9462C27.1543 55.7413 27.1673 55.4988 27.176 55.2187C27.1847 54.9384 27.189 54.6102 27.189 54.2338V52.6532C27.189 52.2768 27.1847 51.9486 27.176 51.6685C27.1673 51.3882 27.1543 51.1458 27.1368 50.9409C27.1238 50.736 27.1044 50.5645 27.0782 50.4265C27.0565 50.2885 27.0304 50.1756 27 50.0878V50.0627ZM38.4923 53.5439C38.5792 53.5564 38.6662 53.5669 38.7531 53.5753C38.8443 53.5794 38.9312 53.5816 39.0139 53.5816C39.557 53.5816 39.9678 53.4414 40.2459 53.1613C40.5284 52.8811 40.6696 52.4609 40.6696 51.9005C40.6696 51.4406 40.5567 51.0767 40.3307 50.8091C40.109 50.5415 39.7809 50.4076 39.3463 50.4076C39.2072 50.4076 39.0834 50.414 38.9747 50.4265C38.8705 50.4348 38.7813 50.4453 38.7075 50.4579C38.6249 50.4746 38.5532 50.4913 38.4923 50.5081V53.5439ZM39.4897 53.9516C39.4028 53.9642 39.3158 53.9725 39.2289 53.9767C39.1464 53.9767 39.0616 53.9767 38.9747 53.9767C38.9052 53.9767 38.8291 53.9747 38.7465 53.9704C38.664 53.9662 38.5792 53.96 38.4923 53.9516V54.259C38.4923 54.6311 38.4966 54.9573 38.5053 55.2374C38.514 55.5134 38.5249 55.7518 38.5379 55.9525C38.5554 56.1532 38.5749 56.3226 38.5967 56.4606C38.6184 56.5944 38.6444 56.7052 38.6749 56.7931V56.8181H37.169V56.7931C37.1994 56.7052 37.2254 56.5924 37.2472 56.4544C37.2733 56.3163 37.2928 56.1469 37.3059 55.9462C37.3232 55.7413 37.3362 55.4988 37.345 55.2187C37.3537 54.9384 37.358 54.6102 37.358 54.2338V52.6532C37.358 52.2768 37.3537 51.9507 37.345 51.6747C37.3362 51.3945 37.3232 51.1541 37.3059 50.9534C37.2928 50.7485 37.2733 50.577 37.2472 50.439C37.2254 50.301 37.1994 50.1881 37.169 50.1003V50.0753C37.2386 50.0794 37.3124 50.0836 37.3906 50.0878C37.4558 50.092 37.5275 50.0961 37.6057 50.1003C37.6884 50.1003 37.7709 50.1003 37.8535 50.1003C37.9925 50.1003 38.1989 50.0878 38.4727 50.0627C38.7465 50.0376 39.0682 50.0251 39.4375 50.0251C39.8113 50.0251 40.1502 50.0689 40.4545 50.1567C40.763 50.2446 41.026 50.3701 41.2433 50.5331C41.4649 50.6961 41.6344 50.8948 41.7518 51.129C41.8735 51.3632 41.9343 51.6245 41.9343 51.9131C41.9343 52.1389 41.9017 52.3459 41.8365 52.534C41.7713 52.718 41.68 52.8853 41.5627 53.0358C41.4454 53.1822 41.3063 53.3118 41.1455 53.4247C40.9847 53.5376 40.8065 53.6358 40.6109 53.7196L41.9734 55.5699C42.0908 55.7204 42.2081 55.8647 42.3254 56.0027C42.4471 56.1407 42.5623 56.264 42.671 56.3728C42.7795 56.4815 42.8817 56.5735 42.9774 56.6488C43.0729 56.7199 43.1534 56.7679 43.2186 56.7931V56.8181H41.5106C41.5106 56.7804 41.4823 56.7157 41.4258 56.6237C41.3737 56.5275 41.3106 56.4292 41.2368 56.3289C41.1672 56.2243 41.0956 56.124 41.0216 56.0278C40.9521 55.9316 40.9 55.8606 40.8652 55.8145L39.4897 53.9516ZM46.2753 52.6532C46.2753 52.2768 46.271 51.9507 46.2623 51.6747C46.2536 51.3945 46.2406 51.1541 46.2233 50.9534C46.2101 50.7485 46.1907 50.577 46.1645 50.439C46.1428 50.301 46.1168 50.1881 46.0863 50.1003V50.0753H47.5987V50.1003C47.5682 50.1881 47.5401 50.301 47.5139 50.439C47.4922 50.577 47.4727 50.7485 47.4553 50.9534C47.4423 51.1541 47.4314 51.3945 47.4227 51.6747C47.414 51.9507 47.4097 52.2768 47.4097 52.6532V54.2338C47.4097 54.6102 47.414 54.9384 47.4227 55.2187C47.4314 55.4988 47.4423 55.7413 47.4553 55.9462C47.4727 56.1469 47.4922 56.3163 47.5139 56.4544C47.5401 56.5924 47.5682 56.7052 47.5987 56.7931V56.8181H46.0863V56.7931C46.1168 56.7052 46.1428 56.5924 46.1645 56.4544C46.1907 56.3163 46.2101 56.1469 46.2233 55.9462C46.2406 55.7413 46.2536 55.4988 46.2623 55.2187C46.271 54.9384 46.2753 54.6102 46.2753 54.2338V52.6532ZM51.6138 50.0753C52.0397 50.0753 52.4765 50.0753 52.9241 50.0753C53.3718 50.0711 53.7868 50.0669 54.1693 50.0627C54.5517 50.0543 54.8797 50.0459 55.1535 50.0376C55.4317 50.0292 55.6143 50.0167 55.7011 50L55.4469 50.6774C55.3296 50.6481 55.1971 50.6209 55.0493 50.5958C54.9189 50.575 54.7603 50.5561 54.5735 50.5394C54.3909 50.5184 54.1779 50.5081 53.9345 50.5081C53.8476 50.5081 53.7477 50.5122 53.6347 50.5206C53.5216 50.5248 53.4131 50.5311 53.3087 50.5394C53.1871 50.5478 53.0632 50.5561 52.9371 50.5645V53.0421C53.2892 53.038 53.6064 53.0295 53.8889 53.017C54.1714 53.0045 54.4126 52.9878 54.6125 52.9668C54.8472 52.9501 55.0536 52.9271 55.2318 52.8978L55.0753 53.6443C54.8364 53.615 54.5952 53.5899 54.3517 53.5689C54.1431 53.5481 53.9128 53.5314 53.6607 53.5188C53.4087 53.502 53.1675 53.4937 52.9371 53.4937V56.3414C53.3413 56.3414 53.7129 56.3268 54.0519 56.2975C54.3909 56.264 54.6864 56.2285 54.9385 56.1909C55.234 56.1449 55.5012 56.0926 55.7403 56.0341L55.5903 56.8558C55.5251 56.8515 55.4187 56.8453 55.2709 56.837C55.1275 56.8328 54.9754 56.8286 54.8146 56.8244C54.6581 56.8244 54.5104 56.8223 54.3713 56.8181C54.2322 56.8181 54.1367 56.8181 54.0845 56.8181H51.6138V56.7931C51.6442 56.7052 51.6703 56.5924 51.692 56.4544C51.7181 56.3163 51.7377 56.1469 51.7507 55.9462C51.7681 55.7413 51.7812 55.4988 51.7898 55.2187C51.7985 54.9384 51.8029 54.6102 51.8029 54.2338V52.6532C51.8029 52.2768 51.7985 51.9507 51.7898 51.6747C51.7812 51.3945 51.7681 51.1541 51.7507 50.9534C51.7377 50.7485 51.7181 50.577 51.692 50.439C51.6703 50.301 51.6442 50.1881 51.6138 50.1003V50.0753ZM60.7463 50.5206C60.7419 50.8635 60.7376 51.1959 60.7333 51.5179C60.7333 51.6559 60.731 51.798 60.7267 51.9445C60.7267 52.0866 60.7246 52.2288 60.7202 52.3709C60.7202 52.5131 60.7202 52.6491 60.7202 52.7787C60.7202 52.9042 60.7202 53.017 60.7202 53.1174C60.7202 53.3265 60.7202 53.5794 60.7202 53.8764C60.7246 54.1691 60.7289 54.4701 60.7333 54.7796C60.7376 55.0891 60.7442 55.388 60.7528 55.6765C60.7615 55.9609 60.7723 56.1993 60.7854 56.3916C60.8288 56.4 60.8853 56.4083 60.9549 56.4167C61.0244 56.4209 61.0962 56.4272 61.17 56.4355C61.2483 56.4397 61.3243 56.4439 61.3981 56.4481C61.4721 56.4481 61.5351 56.4481 61.5873 56.4481C61.8262 56.4481 62.0674 56.4334 62.3109 56.4042C62.5585 56.3748 62.7954 56.3206 63.0214 56.241C63.2518 56.1574 63.4668 56.0445 63.6667 55.9023C63.8667 55.7601 64.0405 55.5783 64.1883 55.3567C64.3404 55.1308 64.4577 54.8611 64.5403 54.5475C64.6272 54.2297 64.6707 53.8554 64.6707 53.4247C64.6707 52.4755 64.4339 51.7437 63.9601 51.2294C63.4907 50.715 62.7888 50.4579 61.8545 50.4579C61.7633 50.4579 61.6655 50.4599 61.5611 50.4642C61.4612 50.4683 61.3612 50.4746 61.2613 50.4829C61.1614 50.4871 61.0657 50.4934 60.9745 50.5017C60.8876 50.5101 60.8115 50.5164 60.7463 50.5206ZM59.3969 50.0627C59.5012 50.0669 59.599 50.0689 59.6902 50.0689C59.7685 50.0731 59.8445 50.0753 59.9184 50.0753C59.9923 50.0753 60.0466 50.0753 60.0814 50.0753C60.1422 50.0753 60.2509 50.0731 60.4073 50.0689C60.5637 50.0648 60.7398 50.0606 60.9353 50.0564C61.1352 50.0481 61.3438 50.0418 61.5611 50.0376C61.7828 50.0292 61.987 50.0251 62.1739 50.0251C62.6824 50.0251 63.167 50.0815 63.6277 50.1944C64.0883 50.3073 64.4925 50.4934 64.8402 50.7527C65.1922 51.0078 65.4703 51.3443 65.6746 51.7625C65.8789 52.1765 65.981 52.6888 65.981 53.2993C65.981 53.9558 65.8636 54.5119 65.629 54.9678C65.3942 55.4236 65.077 55.7957 64.6772 56.0843C64.2773 56.3686 63.8124 56.5756 63.2821 56.7052C62.7563 56.8307 62.2001 56.8934 61.6133 56.8934C61.4742 56.8934 61.3004 56.8892 61.0918 56.8809C60.8832 56.8725 60.6703 56.8642 60.4529 56.8558C60.2356 56.8473 60.0292 56.839 59.8336 56.8306C59.6424 56.8223 59.4969 56.8181 59.3969 56.8181V56.7931C59.4273 56.7052 59.4534 56.5924 59.4751 56.4544C59.5012 56.3163 59.5207 56.1469 59.5338 55.9462C59.5512 55.7413 59.5642 55.4988 59.5729 55.2187C59.5815 54.9384 59.5859 54.6102 59.5859 54.2338V52.6532C59.5859 52.2768 59.5815 51.9486 59.5729 51.6685C59.5642 51.3882 59.5512 51.1458 59.5338 50.9409C59.5207 50.736 59.5012 50.5645 59.4751 50.4265C59.4534 50.2885 59.4273 50.1756 59.3969 50.0878V50.0627ZM77.0947 54.2338C77.0947 54.6102 77.099 54.9384 77.1077 55.2187C77.1164 55.4988 77.1273 55.7413 77.1403 55.9462C77.1576 56.1469 77.1772 56.3163 77.1989 56.4544C77.2207 56.5924 77.2468 56.7052 77.2771 56.7931V56.8181H75.7713V56.7931C75.8018 56.7052 75.8278 56.5924 75.8495 56.4544C75.8756 56.3163 75.8952 56.1469 75.9082 55.9462C75.9256 55.7413 75.9386 55.4988 75.9473 55.2187C75.956 54.9384 75.9604 54.6102 75.9604 54.2338V52.6532C75.9604 52.2768 75.956 51.9507 75.9473 51.6747C75.9386 51.3945 75.9256 51.1541 75.9082 50.9534C75.8952 50.7485 75.8756 50.577 75.8495 50.439C75.8278 50.301 75.8018 50.1881 75.7713 50.1003V50.0753C76.0538 50.0753 76.345 50.0753 76.6449 50.0753C76.949 50.0753 77.2468 50.0753 77.5379 50.0753C77.8334 50.0711 78.1138 50.0669 78.3789 50.0627C78.6484 50.0584 78.8896 50.0543 79.1025 50.0501C79.3198 50.0418 79.5045 50.0355 79.6566 50.0314C79.8087 50.0229 79.9151 50.0125 79.976 50L79.7088 50.6774C79.5957 50.6481 79.4653 50.6209 79.3176 50.5958C79.1915 50.575 79.033 50.5561 78.8417 50.5394C78.6548 50.5184 78.4419 50.5081 78.2029 50.5081C78.116 50.5081 78.0094 50.5122 77.8835 50.5206C77.7618 50.5248 77.6423 50.5311 77.5249 50.5394C77.3858 50.5478 77.2424 50.5561 77.0947 50.5645V52.8476C77.4467 52.8435 77.7683 52.8351 78.0595 52.8226C78.3506 52.8059 78.6027 52.7891 78.8157 52.7724C79.0634 52.7557 79.285 52.7347 79.4806 52.7097L79.3372 53.4623C79.0807 53.4331 78.8221 53.4059 78.5614 53.3809C78.3397 53.3599 78.0964 53.3411 77.8313 53.3243C77.5705 53.3076 77.325 53.2993 77.0947 53.2993V54.2338ZM84.5648 53.5439C84.6517 53.5564 84.7386 53.5669 84.8255 53.5753C84.9169 53.5794 85.0037 53.5816 85.0863 53.5816C85.6296 53.5816 86.0402 53.4414 86.3184 53.1613C86.6008 52.8811 86.7421 52.4609 86.7421 51.9005C86.7421 51.4406 86.6291 51.0767 86.4031 50.8091C86.1815 50.5415 85.8534 50.4076 85.4187 50.4076C85.2797 50.4076 85.1558 50.414 85.0473 50.4265C84.9429 50.4348 84.8538 50.4453 84.7799 50.4579C84.6974 50.4746 84.6256 50.4913 84.5648 50.5081V53.5439ZM85.5622 53.9516C85.4753 53.9642 85.3884 53.9725 85.3015 53.9767C85.2189 53.9767 85.1341 53.9767 85.0473 53.9767C84.9777 53.9767 84.9016 53.9747 84.8191 53.9704C84.7365 53.9662 84.6517 53.96 84.5648 53.9516V54.259C84.5648 54.6311 84.5692 54.9573 84.5779 55.2374C84.5865 55.5134 84.5974 55.7518 84.6105 55.9525C84.6278 56.1532 84.6474 56.3226 84.6691 56.4606C84.6908 56.5944 84.7169 56.7052 84.7473 56.7931V56.8181H83.2415V56.7931C83.2719 56.7052 83.298 56.5924 83.3197 56.4544C83.3458 56.3163 83.3653 56.1469 83.3784 55.9462C83.3958 55.7413 83.4088 55.4988 83.4175 55.2187C83.4261 54.9384 83.4305 54.6102 83.4305 54.2338V52.6532C83.4305 52.2768 83.4261 51.9507 83.4175 51.6747C83.4088 51.3945 83.3958 51.1541 83.3784 50.9534C83.3653 50.7485 83.3458 50.577 83.3197 50.439C83.298 50.301 83.2719 50.1881 83.2415 50.1003V50.0753C83.311 50.0794 83.3849 50.0836 83.4631 50.0878C83.5283 50.092 83.6 50.0961 83.6782 50.1003C83.7608 50.1003 83.8434 50.1003 83.9259 50.1003C84.065 50.1003 84.2715 50.0878 84.5453 50.0627C84.8191 50.0376 85.1406 50.0251 85.5101 50.0251C85.8838 50.0251 86.2228 50.0689 86.527 50.1567C86.8356 50.2446 87.0985 50.3701 87.3158 50.5331C87.5374 50.6961 87.7069 50.8948 87.8242 51.129C87.9459 51.3632 88.0068 51.6245 88.0068 51.9131C88.0068 52.1389 87.9742 52.3459 87.909 52.534C87.8438 52.718 87.7526 52.8853 87.6352 53.0358C87.5179 53.1822 87.3788 53.3118 87.218 53.4247C87.0572 53.5376 86.879 53.6358 86.6835 53.7196L88.0459 55.5699C88.1632 55.7204 88.2806 55.8647 88.3979 56.0027C88.5195 56.1407 88.6348 56.264 88.7434 56.3728C88.8521 56.4815 88.9542 56.5735 89.0498 56.6488C89.1454 56.7199 89.2258 56.7679 89.291 56.7931V56.8181H87.5831C87.5831 56.7804 87.5549 56.7157 87.4983 56.6237C87.4462 56.5275 87.3832 56.4292 87.3093 56.3289C87.2398 56.2243 87.168 56.124 87.0941 56.0278C87.0246 55.9316 86.9724 55.8606 86.9377 55.8145L85.5622 53.9516ZM97.4718 52.6281C97.4718 52.256 97.4695 51.9318 97.4652 51.6559C97.4609 51.3799 97.4522 51.1416 97.4392 50.9409C97.426 50.7401 97.4109 50.5728 97.3934 50.439C97.3761 50.301 97.3544 50.1881 97.3282 50.1003V50.0753H98.2866V50.1003C98.2605 50.1881 98.2388 50.301 98.2214 50.439C98.204 50.577 98.1888 50.7485 98.1758 50.9534C98.1627 51.1541 98.154 51.3945 98.1496 51.6747C98.1453 51.9507 98.1432 52.2768 98.1432 52.6532V54.4534C98.1432 54.905 98.0693 55.2898 97.9215 55.6075C97.7781 55.9253 97.5782 56.1867 97.3218 56.3916C97.0654 56.5924 96.7589 56.7387 96.4026 56.8306C96.0506 56.9269 95.6639 56.975 95.2422 56.975C94.8163 56.975 94.4209 56.9289 94.0558 56.837C93.6907 56.7491 93.3735 56.6069 93.1041 56.4104C92.839 56.2138 92.6281 55.9588 92.4717 55.6452C92.3196 55.3315 92.2435 54.9511 92.2435 54.5036V52.6532C92.2435 52.2768 92.2392 51.9507 92.2305 51.6747C92.2218 51.3945 92.2088 51.1541 92.1914 50.9534C92.174 50.7485 92.1545 50.577 92.1327 50.439C92.111 50.301 92.085 50.1881 92.0545 50.1003V50.0753H93.5603V50.1003C93.53 50.1881 93.5038 50.301 93.4821 50.439C93.4604 50.5728 93.4408 50.7401 93.4235 50.9409C93.4105 51.1416 93.3996 51.3799 93.3909 51.6559C93.3822 51.9318 93.3779 52.256 93.3779 52.6281V54.5036C93.3779 54.8757 93.4365 55.1831 93.5539 55.4256C93.6712 55.664 93.8255 55.8542 94.0167 55.9964C94.208 56.1386 94.4252 56.239 94.6686 56.2975C94.912 56.3519 95.1619 56.379 95.4182 56.379C95.679 56.379 95.9311 56.3519 96.1744 56.2975C96.4222 56.239 96.6417 56.1386 96.8328 55.9964C97.0284 55.8542 97.1827 55.664 97.2958 55.4256C97.413 55.1831 97.4718 54.8757 97.4718 54.5036V52.6281ZM102.426 52.6532C102.426 52.2768 102.422 51.9507 102.413 51.6747C102.404 51.3945 102.39 51.1541 102.374 50.9534C102.36 50.7485 102.34 50.577 102.315 50.439C102.292 50.301 102.267 50.1881 102.237 50.1003V50.0753H103.749V50.1003C103.719 50.1881 103.69 50.301 103.664 50.439C103.642 50.577 103.623 50.7485 103.605 50.9534C103.592 51.1541 103.582 51.3945 103.573 51.6747C103.564 51.9507 103.56 52.2768 103.56 52.6532V54.2338C103.56 54.6102 103.564 54.9384 103.573 55.2187C103.582 55.4988 103.592 55.7413 103.605 55.9462C103.623 56.1469 103.642 56.3163 103.664 56.4544C103.69 56.5924 103.719 56.7052 103.749 56.7931V56.8181H102.237V56.7931C102.267 56.7052 102.292 56.5924 102.315 56.4544C102.34 56.3163 102.36 56.1469 102.374 55.9462C102.39 55.7413 102.404 55.4988 102.413 55.2187C102.422 54.9384 102.426 54.6102 102.426 54.2338V52.6532ZM109.556 50.5394C109.161 50.5394 108.801 50.5561 108.475 50.5895C108.153 50.623 107.875 50.6586 107.641 50.6961C107.37 50.7422 107.128 50.7924 106.91 50.8468L107.041 50.0376C107.105 50.0459 107.212 50.0522 107.36 50.0564C107.507 50.0606 107.662 50.0648 107.823 50.0689C107.988 50.0689 108.142 50.0711 108.286 50.0753C108.434 50.0753 108.535 50.0753 108.592 50.0753H111.676C111.727 50.0753 111.823 50.0753 111.962 50.0753C112.105 50.0711 112.258 50.0689 112.419 50.0689C112.579 50.0648 112.734 50.0606 112.882 50.0564C113.029 50.0522 113.136 50.0459 113.201 50.0376L113.331 50.8468C113.122 50.7924 112.884 50.7422 112.614 50.6961C112.383 50.6586 112.105 50.623 111.779 50.5895C111.458 50.5561 111.095 50.5394 110.691 50.5394V54.2338C110.691 54.6102 110.696 54.9384 110.705 55.2187C110.712 55.4988 110.723 55.7413 110.737 55.9462C110.754 56.1469 110.774 56.3163 110.796 56.4544C110.817 56.5924 110.844 56.7052 110.874 56.7931V56.8181H109.367V56.7931C109.398 56.7052 109.424 56.5924 109.446 56.4544C109.467 56.3163 109.487 56.1469 109.504 55.9462C109.522 55.7413 109.535 55.4988 109.544 55.2187C109.552 54.9384 109.556 54.6102 109.556 54.2338V50.5394ZM119.569 51.3862H119.439C119.413 51.3151 119.369 51.2252 119.308 51.1164C119.252 51.0078 119.173 50.9011 119.074 50.7966C118.979 50.692 118.859 50.6042 118.715 50.5331C118.571 50.4579 118.4 50.4202 118.2 50.4202C118.049 50.4202 117.912 50.4453 117.789 50.4955C117.673 50.5415 117.572 50.6063 117.49 50.6899C117.407 50.7735 117.344 50.874 117.301 50.991C117.258 51.1039 117.235 51.2272 117.235 51.361C117.235 51.5786 117.303 51.7855 117.438 51.982C117.577 52.1786 117.748 52.3751 117.953 52.5717C118.156 52.764 118.379 52.9584 118.617 53.155C118.856 53.3515 119.078 53.5564 119.282 53.7697C119.487 53.983 119.656 54.2088 119.791 54.4472C119.93 54.6855 120 54.9406 120 55.2124C120 55.4131 119.96 55.6201 119.882 55.8334C119.809 56.0466 119.686 56.239 119.517 56.4104C119.348 56.5819 119.13 56.722 118.865 56.8306C118.6 56.9436 118.279 57 117.901 57C117.691 57 117.492 56.9833 117.301 56.9498C117.114 56.9164 116.94 56.8745 116.779 56.8244C116.622 56.7784 116.481 56.7282 116.355 56.6738C116.234 56.6153 116.132 56.561 116.049 56.5108L116.166 55.3253H116.303C116.346 55.4716 116.41 55.618 116.492 55.7643C116.579 55.9107 116.683 56.0445 116.805 56.1658C116.932 56.2829 117.077 56.379 117.242 56.4544C117.411 56.5254 117.605 56.561 117.823 56.561C117.974 56.561 118.118 56.538 118.252 56.4919C118.387 56.4417 118.502 56.3728 118.598 56.285C118.698 56.1971 118.776 56.0905 118.833 55.965C118.89 55.8354 118.917 55.6912 118.917 55.5322C118.917 55.344 118.879 55.1705 118.8 55.0117C118.722 54.8486 118.617 54.6938 118.487 54.5475C118.357 54.397 118.209 54.2527 118.044 54.1147C117.883 53.9767 117.716 53.8366 117.542 53.6944C117.368 53.5522 117.199 53.408 117.034 53.2616C116.873 53.1111 116.727 52.9501 116.597 52.7787C116.467 52.6072 116.362 52.4253 116.284 52.233C116.205 52.0364 116.166 51.821 116.166 51.5869C116.166 51.3402 116.221 51.1186 116.33 50.922C116.438 50.7255 116.581 50.5603 116.759 50.4265C116.938 50.2885 117.142 50.1839 117.372 50.1128C117.602 50.0376 117.842 50 118.09 50C118.272 50 118.441 50.0125 118.598 50.0376C118.758 50.0627 118.902 50.0941 119.029 50.1317C119.159 50.1652 119.271 50.2007 119.367 50.2383C119.463 50.2718 119.541 50.299 119.602 50.3199L119.569 51.3862Z" fill="#BC5D1D"/>
<path d="M6 15.9397V4H146V16" stroke="#FEB302" stroke-opacity="0.7" stroke-width="7" stroke-linecap="round"/>
<path d="M6 43V53H22" stroke="#FEB302" stroke-opacity="0.7" stroke-width="7" stroke-linecap="round"/>
<path d="M147 44V53H125" stroke="#FEB302" stroke-opacity="0.7" stroke-width="7"/>
</svg>
