<svg width="40" height="40" viewBox="0 0 40 40" fill="none" xmlns="http://www.w3.org/2000/svg">
<path d="M39.6213 37.8239L29.2937 27.6615C31.9982 24.7233 33.6599 20.8374 33.6599 16.5614C33.6586 7.4142 26.1242 0 16.8293 0C7.53441 0 0 7.4142 0 16.5614C0 25.7086 7.53441 33.1228 16.8293 33.1228C20.8453 33.1228 24.5287 31.7337 27.422 29.4244L37.7896 39.6268C38.2948 40.1244 39.1149 40.1244 39.6201 39.6268C40.1264 39.1292 40.1264 38.3215 39.6213 37.8239ZM16.8293 30.5747C8.96481 30.5747 2.58942 24.3007 2.58942 16.5614C2.58942 8.82202 8.96481 2.54806 16.8293 2.54806C24.6938 2.54806 31.0691 8.82202 31.0691 16.5614C31.0691 24.3007 24.6938 30.5747 16.8293 30.5747Z" fill="white"/>
</svg>
