<svg width="18" height="18" viewBox="0 0 18 18" fill="none" xmlns="http://www.w3.org/2000/svg">
<g clip-path="url(#clip0_2_237)">
<path d="M17.7652 3.63745L12.3295 9.03818L17.7652 14.4389C17.8635 14.2335 17.9231 14.0065 17.9231 13.764V4.31234C17.9231 4.06985 17.8635 3.84283 17.7652 3.63745Z" fill="#252525"/>
<path d="M16.348 2.73706H1.5754C1.33291 2.73706 1.10589 2.79668 0.900513 2.89494L7.84796 9.80738C8.46225 10.4217 9.46119 10.4217 10.0755 9.80738L17.0229 2.89494C16.8175 2.79668 16.5905 2.73706 16.348 2.73706Z" fill="#252525"/>
<path d="M0.157634 3.63745C0.0593715 3.84283 -0.000244141 4.06985 -0.000244141 4.31234V13.764C-0.000244141 14.0065 0.0593715 14.2336 0.157634 14.4389L5.59337 9.03818L0.157634 3.63745Z" fill="#252525"/>
<path d="M11.5872 9.78076L10.818 10.55C9.79445 11.5735 8.12896 11.5735 7.10541 10.55L6.33625 9.78076L0.900513 15.1815C1.10589 15.2798 1.33291 15.3394 1.5754 15.3394H16.348C16.5905 15.3394 16.8175 15.2798 17.0229 15.1815L11.5872 9.78076Z" fill="#252525"/>
</g>
<defs>
<clipPath id="clip0_2_237">
<rect width="17.9232" height="17.9232" fill="white" transform="translate(0 0.0769043)"/>
</clipPath>
</defs>
</svg>
