<svg width="16" height="20" viewBox="0 0 16 20" fill="none" xmlns="http://www.w3.org/2000/svg">
<path d="M7.96201 0C3.9834 0 0.746582 3.23682 0.746582 7.21539C0.746582 12.1529 7.20368 19.4015 7.4786 19.7077C7.73682 19.9953 8.18767 19.9948 8.44542 19.7077C8.72034 19.4015 15.1774 12.1529 15.1774 7.21539C15.1774 3.23682 11.9406 0 7.96201 0ZM7.96201 10.8457C5.96027 10.8457 4.33179 9.21713 4.33179 7.21539C4.33179 5.21365 5.96031 3.58517 7.96201 3.58517C9.96371 3.58517 11.5922 5.21369 11.5922 7.21543C11.5922 9.21717 9.96371 10.8457 7.96201 10.8457Z" fill="#252525"/>
</svg>
