<svg width="20" height="20" viewBox="0 0 20 20" fill="none" xmlns="http://www.w3.org/2000/svg">
<path d="M19.3441 14.5932L16.5692 11.8183C15.5781 10.8272 13.8933 11.2237 13.4969 12.512C13.1996 13.404 12.2085 13.8995 11.3166 13.7013C9.33449 13.2058 6.65865 10.629 6.16312 8.54782C5.86581 7.65583 6.46044 6.66478 7.35238 6.36751C8.64075 5.97109 9.03717 4.2863 8.04612 3.29525L5.27117 0.520302C4.47833 -0.173434 3.28907 -0.173434 2.59534 0.520302L0.712338 2.4033C-1.17066 4.3854 0.910549 9.63798 5.56849 14.2959C10.2264 18.9539 15.479 21.1342 17.4611 19.1521L19.3441 17.2691C20.0379 16.4762 20.0379 15.287 19.3441 14.5932Z" fill="#252525"/>
</svg>
